      <svg
        xmlns="http://www.w3.org/2000/svg"
        version="1.0"
        width="80pt"
        height="80pt"
        viewBox="0 0 1024.000000 1024.000000"
        preserveAspectRatio="xMidYMid meet"
      >
        <g
          transform="translate(0.000000,1024.000000) scale(0.100000,-0.100000)"
          fill="#000000"
          stroke="none"
        >
          <path d="M5483 8309 c-152 -18 -378 -113 -535 -226 -44 -32 -131 -108 -191 -170 l-111 -112 -66 -11 c-233 -40 -515 -127 -705 -218 l-119 -58 -78 97 c-252 314 -603 489 -978 489 -336 0 -624 -122 -871 -369 -155 -155 -259 -324 -328 -531 -79 -235 -83 -549 -10 -792 69 -232 204 -452 396 -644 l94 -93 -47 -93 c-104 -207 -200 -480 -244 -696 -43 -213 -52 -304 -53 -517 0 -229 12 -345 58 -527 125 -491 464 -962 923 -1282 798 -557 1989 -813 3161 -680 577 66 1142 235 1594 479 691 372 1139 935 1271 1595 34 168 45 332 35 525 -17 360 -102 683 -280 1070 l-60 130 108 110 c296 301 448 676 429 1060 -7 151 -23 237 -66 365 -123 370 -407 670 -763 809 -135 52 -226 71 -378 78 -209 9 -375 -26 -574 -122 -182 -87 -340 -218 -460 -380 -33 -44 -59 -81 -60 -82 0 -1 -54 25 -120 57 -126 62 -250 111 -400 156 -49 15 -91 28 -92 28 -1 1 5 26 13 56 67 260 -93 481 -366 503 -30 2 -88 0 -127 -4z m138 -280 c21 -7 51 -25 66 -41 41 -43 40 -119 -4 -212 -43 -89 -154 -206 -232 -242 -72 -34 -90 -57 -91 -116 0 -38 5 -52 29 -76 46 -46 109 -53 195 -23 64 22 112 54 175 114 l47 45 116 -34 c501 -144 1041 -487 1444 -920 276 -294 478 -588 670 -974 231 -464 328 -820 327 -1210 0 -509 -192 -940 -587 -1317 -182 -175 -385 -312 -651 -443 -473 -232 -987 -364 -1605 -411 -173 -13 -678 -7 -845 11 -582 62 -1064 196 -1506 418 -628 317 -1027 766 -1169 1316 -68 266 -64 624 11 934 170 706 712 1553 1286 2009 419 334 826 528 1335 637 l147 32 49 69 c139 198 428 390 653 434 64 13 97 13 140 0z m-2884 -327 c20 -27 15 -59 -13 -81 -35 -27 -49 -26 -80 4 -29 29 -26 58 9 88 24 21 63 16 84 -11z m-269 -27 c46 -54 23 -98 -77 -148 -93 -47 -207 -133 -318 -239 -80 -77 -96 -88 -127 -88 -68 0 -87 73 -38 151 58 90 245 243 397 324 81 43 125 43 163 0z m5174 8 c25 -22 24 -79 -1 -93 -47 -25 -101 1 -101 48 0 54 62 81 102 45z m551 -145 c129 -89 307 -306 307 -374 0 -39 -30 -67 -72 -67 -26 0 -39 8 -72 49 -22 27 -100 108 -173 180 -73 72 -133 139 -133 148 0 22 19 58 39 73 25 19 70 15 104 -9z" />
          <path d="M3590 6139 c-293 -21 -563 -165 -787 -419 -278 -316 -440 -765 -420 -1170 7 -141 33 -246 92 -365 121 -244 339 -402 650 -471 117 -26 356 -23 491 5 115 24 280 79 364 121 101 51 241 152 319 229 186 183 296 389 352 651 28 136 31 359 5 500 -87 476 -398 827 -802 904 -103 19 -160 23 -264 15z m-69 -664 c63 -33 106 -121 93 -190 -14 -77 -95 -145 -171 -145 -109 0 -201 117 -173 221 30 109 152 165 251 114z m599 -54 c57 -29 131 -107 161 -168 34 -71 33 -188 -2 -263 -33 -69 -86 -122 -158 -158 -48 -23 -68 -27 -146 -27 -106 0 -158 20 -229 90 -75 72 -91 114 -91 230 0 85 3 106 23 143 45 84 116 145 202 173 14 5 63 7 110 6 65 -3 96 -9 130 -26z m-933 -670 c40 -80 58 -98 136 -136 92 -45 87 -85 -16 -122 -64 -23 -101 -60 -122 -122 -19 -57 -44 -84 -77 -79 -17 2 -32 21 -60 78 -41 83 -62 102 -129 125 -53 18 -82 45 -77 72 2 11 33 33 83 58 76 38 81 43 110 101 42 84 53 96 89 92 27 -3 35 -11 63 -67z m1088 -24 c36 -31 38 -86 5 -122 -51 -55 -150 -17 -150 57 0 38 6 48 40 71 34 23 74 21 105 -6z" />
          <path d="M6515 6133 c-105 -23 -190 -50 -251 -77 -346 -160 -574 -521 -613 -969 -27 -309 49 -600 221 -842 264 -372 727 -586 1183 -547 257 22 448 100 603 247 225 212 315 497 268 855 -41 310 -152 583 -342 836 -196 262 -446 431 -726 489 -65 14 -294 19 -343 8z m-39 -652 c47 -22 91 -73 105 -125 23 -82 -42 -181 -132 -204 -128 -33 -252 86 -218 210 15 59 42 92 91 117 53 26 100 26 154 2z m619 -63 c107 -55 176 -160 183 -278 5 -100 -21 -171 -89 -241 -72 -74 -123 -94 -239 -94 -83 0 -101 3 -145 27 -63 33 -129 99 -157 157 -32 67 -36 180 -9 252 24 64 87 141 135 166 98 51 233 56 321 11z m-865 -608 c33 -24 54 -78 45 -119 -10 -47 -59 -86 -109 -86 -109 0 -160 116 -86 195 23 25 36 30 75 30 31 0 57 -7 75 -20z m1107 -59 c42 -84 57 -99 130 -132 104 -47 102 -88 -5 -128 -70 -25 -76 -31 -122 -125 -26 -54 -41 -72 -58 -74 -32 -5 -49 12 -81 83 -32 70 -62 98 -134 123 -56 19 -84 51 -69 78 5 10 43 33 83 53 70 34 76 39 106 100 44 85 51 93 87 89 27 -3 35 -11 63 -67z" />
          <path d="M4955 4304 c-79 -17 -137 -44 -178 -82 -42 -40 -57 -75 -57 -134 0 -123 113 -231 294 -283 80 -23 245 -17 338 14 85 27 182 99 223 165 24 40 30 60 30 107 0 152 -156 230 -453 228 -70 0 -158 -7 -197 -15z" />
          <path d="M5120 3697 c-20 -7 -44 -26 -57 -46 -20 -29 -23 -47 -23 -126 0 -79 -3 -97 -23 -126 -24 -37 -97 -79 -137 -79 -40 0 -112 41 -137 78 -12 19 -25 55 -28 80 -10 79 -14 91 -43 123 -19 21 -39 32 -69 36 -40 5 -46 3 -84 -36 l-42 -41 5 -73 c9 -144 121 -296 255 -347 121 -47 274 -24 379 56 l45 35 41 -35 c69 -60 204 -94 298 -76 133 25 243 111 303 238 27 56 32 79 32 140 0 72 -1 74 -37 108 -47 43 -93 46 -136 9 -36 -30 -48 -61 -57 -139 -6 -51 -12 -63 -49 -101 -51 -50 -100 -63 -165 -44 -45 14 -99 61 -106 94 -2 11 -6 61 -8 110 -3 96 -17 132 -60 153 -39 19 -61 21 -97 9z" />
        </g>
      </svg>