<svg xmlns="http://www.w3.org/2000/svg" version="1.1" xmlns:xlink="http://www.w3.org/1999/xlink" width="32" height="32" x="0" y="0" viewBox="0 0 32 32" style="enable-background:new 0 0 512 512" xml:space="preserve" class=""><g><path d="M8.812 26.392c-1.651.948-3.512 1.288-4.614 1.41.122-1.102.462-2.963 1.409-4.615a.9.9 0 1 0-1.561-.896C2.35 25.249 2.33 28.627 2.33 28.77a.9.9 0 0 0 .9.9c.143 0 3.521-.02 6.479-1.716a.9.9 0 1 0-.897-1.562zM30.909 3.275a2.128 2.128 0 0 0-.628-1.56c-.415-.415-1.015-.62-1.557-.625-2.492.047-9.214.762-15.574 6.471-1.134-.441-2.843-1.096-4.14-.929-1.908.245-4.727 2.841-7.488 5.611a1.465 1.465 0 0 0-.389 1.391c.122.506.492.903.988 1.062l4.39 1.41a40.92 40.92 0 0 0-.972 1.874 2.145 2.145 0 0 0 .418 2.449l5.613 5.613a2.15 2.15 0 0 0 2.45.419c.652-.315 1.27-.641 1.872-.971l1.411 4.389a1.473 1.473 0 0 0 1.416 1.031c.385 0 .756-.151 1.038-.432 2.77-2.761 5.366-5.579 5.61-7.486.169-1.309-.488-3.008-.929-4.142 5.708-6.36 6.424-13.082 6.471-15.575zM3.168 13.143c1.465-1.459 4.647-4.542 6.071-4.725.635-.081 1.632.22 2.474.525-1.487 1.537-2.931 3.379-4.277 5.57zM13.237 24.84a.35.35 0 0 1-.394-.07l-5.614-5.614a.349.349 0 0 1-.069-.394C14.151 4.281 25.459 2.953 28.759 2.891h.008c.119 0 .197.053.243.099a.346.346 0 0 1 .101.252c-.064 3.3-1.393 14.608-15.874 21.598zm10.345-2.078c-.183 1.423-3.266 4.606-4.725 6.07l-1.372-4.267c2.193-1.346 4.035-2.791 5.572-4.278.306.841.607 1.836.525 2.475z" fill="#838181" opacity="1" data-original="#000000" class=""></path><path d="M24.128 13.214a3.783 3.783 0 0 0 0-5.342c-1.428-1.426-3.916-1.426-5.342 0-.713.713-1.106 1.662-1.106 2.671s.394 1.958 1.106 2.671c.713.713 1.662 1.106 2.671 1.106s1.957-.393 2.671-1.106zm-1.274-1.273c-.747.748-2.05.748-2.795 0-.374-.373-.58-.87-.58-1.398s.206-1.024.58-1.398a1.963 1.963 0 0 1 1.397-.579 1.978 1.978 0 0 1 1.398 3.375z" fill="#666972" opacity="1" data-original="#000000" class=""></path></g></svg>